<svg width="88" height="25" viewBox="0 0 88 25" fill="none" xmlns="http://www.w3.org/2000/svg">
<path d="M12.8961 3.89564C11.7447 2.52729 10.1649 1.82617 8.09309 1.82617C5.79033 1.82617 3.84907 2.62129 2.30276 4.21307C0.756438 5.77249 0 7.68324 0 9.91142C0 12.1396 0.756438 14.0503 2.30276 15.6406C3.84907 17.2 5.79033 17.9967 8.09309 17.9967C10.1649 17.9967 11.7447 17.2971 12.8961 15.9272V17.3911C12.8961 19.5869 11.5138 20.7965 9.17917 20.7965C7.43539 20.7965 6.18527 20.1278 5.42883 18.7902L1.21826 21.1463C2.69929 23.7243 5.29666 24.9986 9.01515 24.9986C11.4166 24.9986 13.4885 24.3622 15.167 23.0571C16.8439 21.7843 17.7006 19.9059 17.7006 17.3911V2.2715H14.5746C13.6477 2.2715 12.8961 2.99882 12.8961 3.89564ZM11.7781 12.5865C11.0217 13.2552 10.0678 13.605 8.91641 13.605C7.76503 13.605 6.81113 13.2552 6.05469 12.5865C5.29825 11.9177 4.93675 11.027 4.93675 9.91296C4.93675 8.79887 5.29825 7.90821 6.05469 7.23945C6.81113 6.57069 7.76503 6.2209 8.91641 6.2209C10.0678 6.2209 11.0217 6.57069 11.7781 7.23945C12.5346 7.90821 12.8961 8.79887 12.8961 9.91296C12.8961 11.027 12.5346 11.9192 11.7781 12.5865Z" fill="white"/>
<path d="M47.6443 1.82576C45.5056 1.82576 43.9274 2.46216 42.94 3.76733C42.94 2.94139 42.2473 2.27109 41.3937 2.27109H38.0049V18.1873H42.94V9.4965C42.94 7.33149 44.1249 6.2174 45.9992 6.2174C47.6777 6.2174 48.861 7.23596 48.861 9.11435V18.1858H53.7961V8.41322C53.7961 6.34376 53.2037 4.75198 52.0205 3.57471C50.8691 2.39744 49.3897 1.82422 47.6443 1.82422V1.82576Z" fill="white"/>
<path d="M68.6654 13.7314H62.1536L70.3932 6.34724C70.828 5.76785 71.0637 5.06981 71.0637 4.35328V2.27148H55.5718V6.72785H64.1522L55.9126 14.112C55.4779 14.6914 55.2422 15.3894 55.2422 16.1059V18.1862H70.8121V15.807C70.8121 14.6605 69.8518 13.7298 68.6654 13.7298V13.7314Z" fill="white"/>
<path d="M85.4662 4.27583C83.7877 2.65324 81.7159 1.82422 79.281 1.82422C76.846 1.82422 74.7742 2.6517 73.0957 4.27583C71.4172 5.89997 70.562 7.87236 70.562 10.2284C70.562 12.5845 71.4172 14.5893 73.0957 16.2134C74.7726 17.8375 76.846 18.6326 79.281 18.6326C81.7159 18.6326 83.7877 17.8375 85.4662 16.2134C87.1447 14.5893 87.9999 12.5845 87.9999 10.2284C87.9999 7.87236 87.1447 5.89843 85.4662 4.27583ZM81.9787 12.9343C81.2557 13.6339 80.367 13.9852 79.281 13.9852C78.1949 13.9852 77.3078 13.6354 76.5833 12.9343C75.8587 12.2332 75.4972 11.3425 75.4972 10.2284C75.4972 9.11434 75.8587 8.22215 76.5833 7.52257C77.3063 6.82299 78.1949 6.47165 79.281 6.47165C80.367 6.47165 81.2557 6.82144 81.9787 7.52257C82.7016 8.22215 83.0647 9.11434 83.0647 10.2284C83.0647 11.3425 82.7032 12.2332 81.9787 12.9343Z" fill="white"/>
<path d="M34.476 4.48718C35.801 1.4947 34.9171 0 34.9171 0C34.9171 0 33.5922 0 31.3834 1.70889C31.127 1.90767 30.9486 2.07717 30.8212 2.22818C29.9645 1.96468 29.0504 1.826 28.0757 1.826C27.1011 1.826 26.2651 1.94927 25.4402 2.1912C25.3144 2.04943 25.1503 1.89226 24.913 1.71043C22.7058 0 21.3809 0 21.3809 0C21.3809 0 20.5209 1.46542 21.7838 4.39164C20.1817 5.99267 19.3584 7.92807 19.3584 10.2287C19.3584 12.5293 20.2136 14.5895 21.8921 16.2136C23.569 17.8378 25.6424 18.6329 28.0773 18.6329C30.5123 18.6329 32.5841 17.8378 34.2626 16.2136C35.9411 14.5895 36.7963 12.5848 36.7963 10.2287C36.7963 7.8726 35.9968 6.0543 34.4426 4.46715L34.4776 4.48718H34.476ZM30.7734 12.9345C30.0504 13.6341 29.1618 13.9855 28.0757 13.9855C26.9897 13.9855 26.1026 13.6357 25.3781 12.9345C24.6551 12.2334 24.292 11.3428 24.292 10.2287C24.292 9.11458 24.6535 8.22239 25.3781 7.52281C26.1026 6.82322 26.9897 6.47189 28.0757 6.47189C29.1618 6.47189 30.0504 6.82168 30.7734 7.52281C31.4964 8.22239 31.8595 9.11458 31.8595 10.2287C31.8595 11.3428 31.498 12.2334 30.7734 12.9345Z" fill="white"/>
</svg>
